<?xml version="1.0" ?><svg xmlns="http://www.w3.org/2000/svg" id="Layer_4" data-name="Layer 4" viewBox="0 0 64 64"><path d="m48,12c-5.72,0-8,5.89-8,5.89,0,0-2.28-5.89-8-5.89-4.74,0-8,3.77-8,8.35,0,5.79,5.47,8.41,10.81,13.84l1.19-3.19c-1.53-1.55-2.12-1.8-3.46-2.97-3.64-3.16-5.54-4.94-5.54-7.68s1.72-5.35,5-5.35c3.55,0,5.14,3.83,5.2,3.97.45,1.15,1.55,1.9,2.78,1.91h.02c1.23,0,2.33-.75,2.79-1.89.07-.16,1.66-3.99,5.21-3.99,3.28,0,5,2.69,5,5.35s-1.9,4.52-5.54,7.68c-2.25,1.96-4.97,4.32-7.46,7.54-.38-.49-.76-.96-1.16-1.41l-2.12,2.12c.73.87,1.46,1.82,2.15,2.86.27.4.7.6,1.13.6s.86-.2,1.13-.6c6.16-9.23,14.87-11.48,14.87-18.79,0-4.58-3.26-8.35-8-8.35Z"/><path d="m35.96,25.21l1.79,1.79-24.73,24.73-1.79-1.79,24.73-24.73m0-4.24L6.99,49.94l6.04,6.04,28.97-28.97-6.04-6.04h0Z"/><rect x="29.5" y="23.64" width="11.1" height="8.54" transform="translate(-9.47 32.96) rotate(-45)"/></svg>