<?xml version="1.0" ?><svg xmlns="http://www.w3.org/2000/svg" xmlns:xlink="http://www.w3.org/1999/xlink" version="1.1" viewBox="0 0 512 512" style="enable-background:new 0 0 512 512;" xml:space="preserve"><g id="_x33_6_x2C__color_palette_x2C__paint_palette_x2C__edit_tools_x2C__painting_palette_x2C__painter_x2C__artistic"><g><g><path style="fill:#283954;" d="M401.608,250.659c-23.066,1.633-46.817-2.37-69.235-12.957     c-4.995-2.362-10.955-0.223-13.313,4.771c-2.358,4.994-0.223,10.954,4.771,13.313c25.633,12.106,52.752,16.691,79.173,14.824     c50.713-3.515,85.524,49.382,62.144,94.154c-73.643,141.008-262.801,168.688-374.19,57.773     C-0.521,331.451-1.137,182.653,89.583,90.846c32.734-33.108,69.466-58.578,109.276-36.315     c20.655,11.552,32.955,32.532,32.902,56.145c0,28.727,7.529,55.859,21.012,79.399c2.745,4.793,8.858,6.45,13.647,3.708     c4.793-2.745,6.452-8.855,3.708-13.647c-11.699-20.425-18.367-44.117-18.367-69.438c0.069-30.954-16.059-58.477-43.14-73.622     C159.656,9.69,114.974,36.72,75.359,76.785C-23.7,177.033-22.984,337.308,76.846,436.71     c122.02,121.5,326.621,89.352,406.03-62.687C513.452,315.47,468.062,246.062,401.608,250.659z"/><path style="fill:#283954;" d="M498.845,12.661c-15.556-15.554-40.73-15.556-56.285,0L282.762,172.458     c-3.905,3.905-3.905,10.237,0,14.143c3.906,3.904,10.238,3.906,14.143,0L456.703,26.803c7.737-7.737,20.262-7.739,28,0.001     c7.721,7.72,7.721,20.281,0,28.001L324.9,214.608c-3.905,3.905-3.905,10.237,0,14.143c3.906,3.904,10.235,3.906,14.143,0     L498.845,68.948C514.363,53.429,514.363,28.18,498.845,12.661z"/></g><g><path style="fill:#3A98FF;" d="M140.089,191.404c24.875,0,45-20.132,45-45.001c0-25.022-20.268-44.978-45-44.978     c-24.728,0-45,19.95-45,44.978C95.089,171.277,115.219,191.404,140.089,191.404z M140.089,121.415c13.736,0,25,11.083,25,24.987     c0,13.821-11.185,25.001-25,25.001c-13.821,0-25-11.186-25-25.001C115.089,132.529,126.324,121.415,140.089,121.415z"/><path style="fill:#3A98FF;" d="M141.762,261.005c0-24.813-20.187-45-45-45s-45,20.187-45,45s20.187,45,45,45     S141.762,285.819,141.762,261.005z M96.762,286.005c-13.785,0-25-11.215-25-25s11.215-25,25-25s25,11.215,25,25     S110.547,286.005,96.762,286.005z"/><path style="fill:#3A98FF;" d="M147.16,327.677c-24.875,0-44.999,20.132-44.999,45.001c0,24.873,20.128,44.999,44.999,44.999     c24.875,0,45.001-20.168,45.001-44.999C192.161,347.803,172.029,327.677,147.16,327.677z M147.16,397.677     c-13.819,0-24.999-11.185-24.999-24.999c0-13.821,11.186-25.001,24.999-25.001c13.819,0,25.001,11.185,25.001,25.001     C172.161,386.499,160.959,397.677,147.16,397.677z"/><path style="fill:#3A98FF;" d="M261.762,371.005c-24.813,0-45,20.187-45,45s20.187,45,45,45s45-20.187,45-45     S286.576,371.005,261.762,371.005z M261.762,441.005c-13.785,0-25-11.215-25-25s11.215-25,25-25s25,11.215,25,25     S275.547,441.005,261.762,441.005z"/><path style="fill:#3A98FF;" d="M373.435,320.607c-24.875,0-45.001,20.13-45.001,44.999c0,24.875,20.132,45.001,45.001,45.001     c24.875,0,44.999-20.132,44.999-45.001C418.434,340.733,398.306,320.607,373.435,320.607z M373.435,390.607     c-13.819,0-25.001-11.185-25.001-25.001c0-13.82,11.188-24.999,25.001-24.999c13.819,0,24.999,11.184,24.999,24.999     C398.434,379.427,387.248,390.607,373.435,390.607z"/><path style="fill:#3A98FF;" d="M342.254,225.389c-0.595-20.338-11.664-38.327-28.317-48.041     c-28.667-17.044-65.628-6.408-80.905,23.217c-12.086,23.439-29.532,41.655-50.565,55.055     c-17.526,11.165-12.531,38.073,7.854,42.038c45.831,8.915,88.965,2.712,126.573-22.738     C333.355,263.779,342.836,245.263,342.254,225.389z M305.684,258.355c-31.506,21.323-69.037,27.941-111.546,19.67     c-1.607-0.313-2.146-1.44-2.315-2.332c-0.146-0.773-0.161-2.218,1.39-3.206c23.868-15.204,43.81-36.019,57.595-62.755     c9.621-18.659,33.161-26.71,52.992-15.143C327.582,208.729,328.616,242.837,305.684,258.355z"/></g></g></g><g id="Layer_1"/></svg>