<?xml version="1.0" ?><svg xmlns="http://www.w3.org/2000/svg" id="Layer_4" data-name="Layer 4" viewBox="0 0 64 64"><defs><style>
      .cls-1 {
        fill: none;
        stroke: #000;
        stroke-linecap: round;
        stroke-linejoin: round;
        stroke-width: 3px;
      }
    </style></defs><path d="m31.67,30.67c.15.24.51.24.66,0,.45-.72,1.39-1.78,2.95-1.78,1.94,0,3.28,1.55,3.28,3.42,0,2.88-3.29,3.84-5.79,7.26-.38.52-1.16.52-1.54,0-2.5-3.42-5.79-4.38-5.79-7.26,0-1.88,1.34-3.42,3.28-3.42,1.56,0,2.5,1.07,2.95,1.78Z"/><path d="m32.12,23.88c4.4,0,8.66.93,12.31,2.68,3.75,1.8,6.63,4.37,8.24,7.33-1.61,2.95-4.49,5.51-8.24,7.31-3.65,1.76-7.91,2.68-12.31,2.68s-8.91-.98-12.64-2.85c-3.59-1.78-6.35-4.29-7.91-7.15,1.56-2.86,4.33-5.37,7.91-7.16,3.73-1.86,8.1-2.84,12.64-2.84m0-3c-5.18,0-9.99,1.17-13.98,3.16-4.66,2.33-8.2,5.79-9.9,9.85,1.7,4.05,5.24,7.51,9.9,9.83,3.99,1.99,8.8,3.16,13.98,3.16s9.7-1.1,13.61-2.98c4.84-2.32,8.52-5.85,10.27-10.01-1.75-4.16-5.43-7.7-10.27-10.03-3.91-1.88-8.59-2.98-13.61-2.98h0Z"/><path d="m32.12,23.88c4.4,0,8.66.93,12.31,2.68,3.75,1.8,6.63,4.37,8.24,7.33-1.61,2.95-4.49,5.51-8.24,7.31-3.65,1.76-7.91,2.68-12.31,2.68s-8.91-.98-12.64-2.85c-3.59-1.78-6.35-4.29-7.91-7.15,1.56-2.86,4.33-5.37,7.91-7.16,3.73-1.86,8.1-2.84,12.64-2.84m0-3c-5.18,0-9.99,1.17-13.98,3.16-4.66,2.33-8.2,5.79-9.9,9.85,1.7,4.05,5.24,7.51,9.9,9.83,3.99,1.99,8.8,3.16,13.98,3.16s9.7-1.1,13.61-2.98c4.84-2.32,8.52-5.85,10.27-10.01-1.75-4.16-5.43-7.7-10.27-10.03-3.91-1.88-8.59-2.98-13.61-2.98h0Z"/><path d="m32.12,23.88c4.12,0,8.12.81,11.61,2.36,1.49,2.27,2.27,4.89,2.27,7.64s-.78,5.37-2.27,7.64c-3.49,1.55-7.49,2.36-11.61,2.36s-8.38-.87-11.95-2.51c-1.42-2.23-2.17-4.8-2.17-7.49s.75-5.26,2.17-7.49c3.58-1.65,7.69-2.51,11.95-2.51m0-3c-5.18,0-9.99,1.17-13.98,3.16-1.98,2.77-3.14,6.17-3.14,9.84s1.16,7.07,3.14,9.84c3.99,1.99,8.8,3.16,13.98,3.16s9.7-1.1,13.61-2.98c2.06-2.81,3.27-6.27,3.27-10.02s-1.21-7.21-3.27-10.02c-3.91-1.88-8.59-2.98-13.61-2.98h0Z"/><g><path class="cls-1" d="m7.03,24.75c-.09.05.95,4.85,3.67,6.12"/><path class="cls-1" d="m16.61,18.87s.41,4.2,2.05,6.55"/><path class="cls-1" d="m27.13,16.06s.18,3.74.47,6.6"/><path class="cls-1" d="m37.88,16.28s.15,3.54-1,6.32"/><path class="cls-1" d="m48.17,19.47c.07.02.17,3.65-2.32,5.76"/><path class="cls-1" d="m57.33,25.6c.09.06.1,4.13-3.46,4.96"/></g></svg>